<svg version="1.1" id="Layer_1" xmlns="http://www.w3.org/2000/svg" xmlns:xlink="http://www.w3.org/1999/xlink" x="0px" y="0px"
	 width="100%" viewBox="0 0 500 500" enable-background="new 0 0 500 500" xml:space="preserve">
<path fill="#FFFFFF" opacity="1.000000" stroke="none" 
	d="
M228.000000,501.000000 
	C152.000015,501.000000 76.500038,501.000000 1.000041,501.000000 
	C1.000027,334.333405 1.000027,167.666779 1.000013,1.000130 
	C167.666565,1.000087 334.333130,1.000087 500.999756,1.000043 
	C500.999847,167.666534 500.999847,334.333069 500.999939,500.999817 
	C410.166656,501.000000 319.333344,501.000000 228.000000,501.000000 
M167.758881,267.006470 
	C178.064896,266.669525 188.436661,266.946411 198.661499,265.851440 
	C213.918045,264.217651 227.872971,259.083435 237.889603,246.564728 
	C247.871902,234.088974 249.719986,219.335800 248.797348,204.079605 
	C247.329910,179.815048 235.069504,164.010559 212.844818,157.324127 
	C197.269348,152.638153 181.207031,153.626587 165.256348,153.753891 
	C164.300247,153.761520 162.584610,156.364990 162.546692,157.795639 
	C162.299774,167.114120 162.419022,176.442322 162.418625,185.767334 
	C162.418442,190.186111 162.418579,194.604904 162.418579,199.031921 
	C170.061020,199.031921 176.949219,199.031921 184.361908,199.031921 
	C184.361908,190.614822 184.361908,182.536758 184.361908,174.546463 
	C200.990845,172.719894 215.738464,178.912567 222.334976,190.208801 
	C229.423065,202.346832 228.740829,222.747101 220.414322,233.405533 
	C211.192413,245.210129 198.119110,246.349243 183.895660,246.066040 
	C183.895660,237.405472 183.895660,229.358871 183.895660,221.342728 
	C176.528427,221.342728 169.759064,221.342728 162.459503,221.342728 
	C162.459503,235.847076 162.381012,250.125702 162.646591,264.397919 
	C162.663239,265.292969 165.370514,266.138000 167.758881,267.006470 
M48.332970,200.237930 
	C35.591228,200.237930 22.849483,200.237930 10.295356,200.237930 
	C10.295356,222.920822 10.295356,244.798798 10.295356,267.002563 
	C16.070730,267.002563 21.391720,266.816772 26.691895,267.068787 
	C30.148405,267.233124 31.342793,266.160492 31.285963,262.596863 
	C31.094736,250.605743 31.214025,238.609665 31.214495,226.615494 
	C31.214563,224.869202 31.214504,223.122910 31.214504,221.131805 
	C33.384323,221.131805 34.747326,221.337097 36.026405,221.096420 
	C41.705383,220.027786 44.502079,222.540405 46.688416,227.778915 
	C51.679642,239.738037 57.348808,251.416870 62.880287,263.144623 
	C63.577633,264.623138 65.049019,266.747498 66.252426,266.809326 
	C73.116936,267.162170 80.008911,266.980591 87.921257,266.980591 
	C80.136887,249.995789 72.841675,234.078293 65.555710,218.180954 
	C66.398102,217.588394 66.761856,217.253662 67.187355,217.044617 
	C81.798660,209.865402 87.998947,198.065155 85.852928,181.494293 
	C83.991547,167.121246 75.226059,157.182877 59.515312,155.007812 
	C46.741600,153.239365 33.626156,153.922134 20.660944,153.565567 
	C17.210117,153.470657 13.754465,153.551208 10.215046,153.551208 
	C10.215046,160.783951 10.215046,167.328583 10.215046,174.086807 
	C21.414249,174.086807 32.230164,173.996674 43.043186,174.133957 
	C47.014076,174.184357 51.098602,174.281250 54.920216,175.218002 
	C62.866184,177.165787 66.687981,184.920364 63.640079,192.387436 
	C61.025932,198.791855 55.373226,200.002365 48.332970,200.237930 
M379.105072,174.083527 
	C379.853088,173.444748 381.232697,172.823242 381.250732,172.164505 
	C381.417389,166.070038 381.349121,159.969162 381.349121,153.547043 
	C364.883148,153.547043 349.078674,153.692688 333.279999,153.454407 
	C328.795258,153.386749 327.289856,154.556595 327.317047,159.272232 
	C327.513031,193.252625 327.417206,227.234665 327.436096,261.216187 
	C327.437073,262.998474 327.639862,264.780670 327.761017,266.764648 
	C345.809662,266.764648 363.389130,266.764648 381.102661,266.764648 
	C381.102661,259.764374 381.102661,253.006485 381.102661,245.799103 
	C370.408600,245.799103 359.983276,245.799103 349.518494,245.799103 
	C349.518494,237.139847 349.518494,228.939056 349.518494,220.229126 
	C364.836212,220.229126 379.764832,220.229126 394.711121,220.229126 
	C394.711121,213.170395 394.711121,206.641174 394.711121,199.641815 
	C379.322968,199.641815 364.408661,199.641815 349.451294,199.641815 
	C349.451294,190.918640 349.451294,182.686584 349.451294,174.088455 
	C359.241455,174.088455 368.708252,174.088455 379.105072,174.083527 
M143.268188,266.987793 
	C143.864105,266.383575 144.965363,265.789642 144.977890,265.173523 
	C145.105560,258.899689 145.055923,252.622253 145.055923,245.870514 
	C134.170547,245.870514 123.771568,245.870514 113.269821,245.870514 
	C113.269821,237.157791 113.269821,228.933792 113.269821,220.278488 
	C115.192482,220.278488 116.822662,220.278488 118.452843,220.278473 
	C130.441711,220.278351 142.431870,220.361618 154.417816,220.174698 
	C155.951401,220.150787 158.723083,218.803558 158.781265,217.927277 
	C159.172318,212.038101 158.984833,206.110504 158.984833,199.778336 
	C143.241425,199.778336 128.321548,199.778336 113.380737,199.778336 
	C113.380737,190.963699 113.380737,182.606293 113.380737,173.939728 
	C124.057808,173.939728 134.328613,173.939728 144.755371,173.939728 
	C144.755371,167.064178 144.755371,160.512634 144.755371,153.653870 
	C127.808670,153.653870 111.178299,153.696640 94.548485,153.619858 
	C90.975716,153.603378 91.135643,155.820786 91.137222,158.279175 
	C91.159424,192.913651 91.224373,227.548492 91.059708,262.182220 
	C91.039589,266.415161 92.668327,267.107605 96.348946,267.069214 
	C111.666389,266.909424 126.986450,267.001068 143.268188,266.987793 
M288.734497,255.540848 
	C288.734497,259.293335 288.734497,263.045807 288.734497,266.760162 
	C315.240082,267.527740 332.030212,241.512939 320.443848,218.553253 
	C313.762482,205.313416 301.835724,200.847641 287.917908,200.071198 
	C280.112457,199.635757 275.130585,195.154846 274.819794,188.419022 
	C274.470093,180.838913 278.619080,175.538834 285.944489,174.208008 
	C293.816681,172.777817 300.101990,176.469315 302.365204,183.592667 
	C302.776855,184.888290 304.121674,186.796524 305.117340,186.848160 
	C311.039581,187.155396 316.985809,187.000015 323.155701,187.000015 
	C323.253876,185.493790 323.432007,184.533508 323.360748,183.592102 
	C322.033569,166.060562 307.854462,153.701431 289.024841,153.632660 
	C270.229126,153.564011 255.544693,166.265549 253.766403,184.130005 
	C251.960953,202.267136 262.715820,215.809937 282.038391,219.584122 
	C285.288422,220.218903 288.692047,220.134903 291.899994,220.903473 
	C298.743225,222.542938 303.222504,228.260651 302.939880,234.469055 
	C302.668457,240.431656 298.375793,244.776443 291.333130,246.248810 
	C290.547516,246.413040 289.787964,246.702087 288.734406,247.017731 
	C288.734406,249.608688 288.734406,252.088486 288.734497,255.540848 
M409.259857,237.708710 
	C405.626221,247.231842 401.992584,256.754974 398.081635,267.004974 
	C404.878693,267.004974 410.532715,266.780518 416.157684,267.087860 
	C419.614838,267.276764 421.060760,266.036438 422.158264,262.807190 
	C428.307281,244.714264 434.705200,226.705856 441.029846,208.672684 
	C441.520172,207.274612 442.100128,205.907990 443.045929,203.481201 
	C444.075531,206.228928 444.620117,207.616867 445.118195,209.021301 
	C451.450134,226.874710 457.733856,244.745514 464.171173,262.560822 
	C464.767670,264.211670 466.253448,266.703339 467.455231,266.779877 
	C473.996338,267.196442 480.577911,266.977905 488.203339,266.977905 
	C473.200012,228.411957 458.602112,190.888123 444.004181,153.364288 
	C443.307037,153.433090 442.609863,153.501907 441.912720,153.570724 
	C431.144531,181.386108 420.376343,209.201492 409.259857,237.708710 
z"/>
<path fill="#FF3434" opacity="1.000000" stroke="none" 
	d="
M167.292450,267.006409 
	C165.370514,266.138000 162.663239,265.292969 162.646591,264.397919 
	C162.381012,250.125702 162.459503,235.847076 162.459503,221.342728 
	C169.759064,221.342728 176.528427,221.342728 183.895660,221.342728 
	C183.895660,229.358871 183.895660,237.405472 183.895660,246.066040 
	C198.119110,246.349243 211.192413,245.210129 220.414322,233.405533 
	C228.740829,222.747101 229.423065,202.346832 222.334976,190.208801 
	C215.738464,178.912567 200.990845,172.719894 184.361908,174.546463 
	C184.361908,182.536758 184.361908,190.614822 184.361908,199.031921 
	C176.949219,199.031921 170.061020,199.031921 162.418579,199.031921 
	C162.418579,194.604904 162.418442,190.186111 162.418625,185.767334 
	C162.419022,176.442322 162.299774,167.114120 162.546692,157.795639 
	C162.584610,156.364990 164.300247,153.761520 165.256348,153.753891 
	C181.207031,153.626587 197.269348,152.638153 212.844818,157.324127 
	C235.069504,164.010559 247.329910,179.815048 248.797348,204.079605 
	C249.719986,219.335800 247.871902,234.088974 237.889603,246.564728 
	C227.872971,259.083435 213.918045,264.217651 198.661499,265.851440 
	C188.436661,266.946411 178.064896,266.669525 167.292450,267.006409 
z"/>
<path fill="#FF3333" opacity="1.000000" stroke="none" 
	d="
M48.805252,200.229492 
	C55.373226,200.002365 61.025932,198.791855 63.640079,192.387436 
	C66.687981,184.920364 62.866184,177.165787 54.920216,175.218002 
	C51.098602,174.281250 47.014076,174.184357 43.043186,174.133957 
	C32.230164,173.996674 21.414249,174.086807 10.215046,174.086807 
	C10.215046,167.328583 10.215046,160.783951 10.215046,153.551208 
	C13.754465,153.551208 17.210117,153.470657 20.660944,153.565567 
	C33.626156,153.922134 46.741600,153.239365 59.515312,155.007812 
	C75.226059,157.182877 83.991547,167.121246 85.852928,181.494293 
	C87.998947,198.065155 81.798660,209.865402 67.187355,217.044617 
	C66.761856,217.253662 66.398102,217.588394 65.555710,218.180954 
	C72.841675,234.078293 80.136887,249.995789 87.921257,266.980591 
	C80.008911,266.980591 73.116936,267.162170 66.252426,266.809326 
	C65.049019,266.747498 63.577633,264.623138 62.880287,263.144623 
	C57.348808,251.416870 51.679642,239.738037 46.688416,227.778915 
	C44.502079,222.540405 41.705383,220.027786 36.026405,221.096420 
	C34.747326,221.337097 33.384323,221.131805 31.214504,221.131805 
	C31.214504,223.122910 31.214563,224.869202 31.214495,226.615494 
	C31.214025,238.609665 31.094736,250.605743 31.285963,262.596863 
	C31.342793,266.160492 30.148405,267.233124 26.691895,267.068787 
	C21.391720,266.816772 16.070730,267.002563 10.295356,267.002563 
	C10.295356,244.798798 10.295356,222.920822 10.295356,200.237930 
	C22.849483,200.237930 35.591228,200.237930 48.805252,200.229492 
z"/>
<path fill="#FF3333" opacity="1.000000" stroke="none" 
	d="
M378.640076,174.085999 
	C368.708252,174.088455 359.241455,174.088455 349.451294,174.088455 
	C349.451294,182.686584 349.451294,190.918640 349.451294,199.641815 
	C364.408661,199.641815 379.322968,199.641815 394.711121,199.641815 
	C394.711121,206.641174 394.711121,213.170395 394.711121,220.229126 
	C379.764832,220.229126 364.836212,220.229126 349.518494,220.229126 
	C349.518494,228.939056 349.518494,237.139847 349.518494,245.799103 
	C359.983276,245.799103 370.408600,245.799103 381.102661,245.799103 
	C381.102661,253.006485 381.102661,259.764374 381.102661,266.764648 
	C363.389130,266.764648 345.809662,266.764648 327.761017,266.764648 
	C327.639862,264.780670 327.437073,262.998474 327.436096,261.216187 
	C327.417206,227.234665 327.513031,193.252625 327.317047,159.272232 
	C327.289856,154.556595 328.795258,153.386749 333.279999,153.454407 
	C349.078674,153.692688 364.883148,153.547043 381.349121,153.547043 
	C381.349121,159.969162 381.417389,166.070038 381.250732,172.164505 
	C381.232697,172.823242 379.853088,173.444748 378.640076,174.085999 
z"/>
<path fill="#FF3232" opacity="1.000000" stroke="none" 
	d="
M142.786865,266.994141 
	C126.986450,267.001068 111.666389,266.909424 96.348946,267.069214 
	C92.668327,267.107605 91.039589,266.415161 91.059708,262.182220 
	C91.224373,227.548492 91.159424,192.913651 91.137222,158.279175 
	C91.135643,155.820786 90.975716,153.603378 94.548485,153.619858 
	C111.178299,153.696640 127.808670,153.653870 144.755371,153.653870 
	C144.755371,160.512634 144.755371,167.064178 144.755371,173.939728 
	C134.328613,173.939728 124.057808,173.939728 113.380737,173.939728 
	C113.380737,182.606293 113.380737,190.963699 113.380737,199.778336 
	C128.321548,199.778336 143.241425,199.778336 158.984833,199.778336 
	C158.984833,206.110504 159.172318,212.038101 158.781265,217.927277 
	C158.723083,218.803558 155.951401,220.150787 154.417816,220.174698 
	C142.431870,220.361618 130.441711,220.278351 118.452843,220.278473 
	C116.822662,220.278488 115.192482,220.278488 113.269821,220.278488 
	C113.269821,228.933792 113.269821,237.157791 113.269821,245.870514 
	C123.771568,245.870514 134.170547,245.870514 145.055923,245.870514 
	C145.055923,252.622253 145.105560,258.899689 144.977890,265.173523 
	C144.965363,265.789642 143.864105,266.383575 142.786865,266.994141 
z"/>
<path fill="#FF3333" opacity="1.000000" stroke="none" 
	d="
M288.734436,255.054565 
	C288.734406,252.088486 288.734406,249.608688 288.734406,247.017731 
	C289.787964,246.702087 290.547516,246.413040 291.333130,246.248810 
	C298.375793,244.776443 302.668457,240.431656 302.939880,234.469055 
	C303.222504,228.260651 298.743225,222.542938 291.899994,220.903473 
	C288.692047,220.134903 285.288422,220.218903 282.038391,219.584122 
	C262.715820,215.809937 251.960953,202.267136 253.766403,184.130005 
	C255.544693,166.265549 270.229126,153.564011 289.024841,153.632660 
	C307.854462,153.701431 322.033569,166.060562 323.360748,183.592102 
	C323.432007,184.533508 323.253876,185.493790 323.155701,187.000015 
	C316.985809,187.000015 311.039581,187.155396 305.117340,186.848160 
	C304.121674,186.796524 302.776855,184.888290 302.365204,183.592667 
	C300.101990,176.469315 293.816681,172.777817 285.944489,174.208008 
	C278.619080,175.538834 274.470093,180.838913 274.819794,188.419022 
	C275.130585,195.154846 280.112457,199.635757 287.917908,200.071198 
	C301.835724,200.847641 313.762482,205.313416 320.443848,218.553253 
	C332.030212,241.512939 315.240082,267.527740 288.734497,266.760162 
	C288.734497,263.045807 288.734497,259.293335 288.734436,255.054565 
z"/>
<path fill="#FF3434" opacity="1.000000" stroke="none" 
	d="
M409.434021,237.362793 
	C420.376343,209.201492 431.144531,181.386108 441.912720,153.570724 
	C442.609863,153.501907 443.307037,153.433090 444.004181,153.364288 
	C458.602112,190.888123 473.200012,228.411957 488.203339,266.977905 
	C480.577911,266.977905 473.996338,267.196442 467.455231,266.779877 
	C466.253448,266.703339 464.767670,264.211670 464.171173,262.560822 
	C457.733856,244.745514 451.450134,226.874710 445.118195,209.021301 
	C444.620117,207.616867 444.075531,206.228928 443.045929,203.481201 
	C442.100128,205.907990 441.520172,207.274612 441.029846,208.672684 
	C434.705200,226.705856 428.307281,244.714264 422.158264,262.807190 
	C421.060760,266.036438 419.614838,267.276764 416.157684,267.087860 
	C410.532715,266.780518 404.878693,267.004974 398.081635,267.004974 
	C401.992584,256.754974 405.626221,247.231842 409.434021,237.362793 
z"/>
</svg>