<svg version="1.1" id="Layer_1" xmlns="http://www.w3.org/2000/svg" xmlns:xlink="http://www.w3.org/1999/xlink" x="0px" y="0px"
	 width="100%" viewBox="0 0 500 500" enable-background="new 0 0 500 500" xml:space="preserve">
<path fill="#FFFFFF" opacity="1.000000" stroke="none" 
	d="
M460.000000,501.000000 
	C306.666718,501.000000 153.833405,501.000000 1.000082,501.000000 
	C1.000055,334.333405 1.000055,167.666824 1.000027,1.000171 
	C167.666550,1.000114 334.333099,1.000114 500.999756,1.000057 
	C500.999817,167.666519 500.999817,334.333038 500.999908,500.999756 
	C487.500000,501.000000 474.000000,501.000000 460.000000,501.000000 
M162.418915,331.224121 
	C162.528946,333.006622 162.638977,334.789093 162.742508,336.466339 
	C177.582428,338.717163 201.600723,336.746582 214.609467,332.288422 
	C232.046539,326.312653 243.479523,314.648407 247.116684,296.403534 
	C248.534286,289.292511 249.065735,281.827881 248.746887,274.579498 
	C247.622025,249.008804 233.919373,231.441360 209.363556,226.677658 
	C195.127930,223.916016 180.245895,224.481277 165.653656,223.567032 
	C162.421844,223.364548 162.404282,225.587646 162.408569,227.898331 
	C162.432419,240.731567 162.410263,253.564896 162.445862,266.398071 
	C162.448410,267.318298 162.786346,268.237610 162.969574,269.163574 
	C170.069977,269.163574 176.861130,269.163574 184.165695,269.163574 
	C184.165695,260.874420 184.165695,252.790314 184.165695,244.178085 
	C198.905151,244.165741 212.870285,245.479431 221.223923,258.809906 
	C229.854584,272.582428 229.821274,287.669495 221.548416,301.494659 
	C213.305893,315.269135 199.022614,316.314606 184.029709,316.080383 
	C184.029709,307.553192 184.029709,299.497589 184.029709,291.480530 
	C176.551712,291.480530 169.671082,291.480530 162.419022,291.480530 
	C162.419022,304.657867 162.419022,317.467590 162.418915,331.224121 
M72.715401,303.767700 
	C70.305786,298.538940 67.896172,293.310181 65.406151,287.906921 
	C73.380501,284.475586 79.551857,279.910675 83.013069,272.373932 
	C93.659737,249.190979 79.900047,225.504501 54.472649,224.064468 
	C40.516689,223.274124 26.491663,223.695038 12.497539,223.609711 
	C11.726462,223.605011 10.953149,223.967361 10.095890,224.179932 
	C10.095890,230.807541 10.095890,237.226730 10.095890,244.086746 
	C20.481661,244.086746 30.607338,244.009293 40.730862,244.123230 
	C45.041893,244.171738 49.424950,244.204071 53.640171,244.978836 
	C61.134624,246.356323 64.923386,251.289444 64.513458,258.200531 
	C64.106728,265.057648 59.702358,269.608032 52.062801,269.963898 
	C42.749722,270.397797 33.406509,270.194092 24.076214,270.245483 
	C19.461843,270.270874 14.847216,270.249878 9.840547,270.249878 
	C9.840547,291.997375 9.800920,313.133636 9.974302,334.268127 
	C9.981840,335.186920 11.900644,336.804932 13.006876,336.875275 
	C17.654135,337.170959 22.340166,336.823212 26.993885,337.062836 
	C30.297178,337.232971 31.316986,336.059631 31.274578,332.792419 
	C31.118870,320.796112 31.213873,308.796539 31.214483,296.798218 
	C31.214575,295.032501 31.214495,293.266754 31.214495,291.131775 
	C33.572731,291.131775 35.261524,291.386261 36.844601,291.085083 
	C42.050621,290.094666 44.366695,292.590637 46.336693,297.199738 
	C51.497849,309.274994 57.202511,321.119873 62.814816,332.997894 
	C63.524494,334.499847 64.921112,336.725983 66.094955,336.787231 
	C72.991165,337.147217 79.915726,336.964233 87.920288,336.964233 
	C82.653030,325.492798 77.826012,314.980194 72.715401,303.767700 
M340.520050,337.004761 
	C353.985535,337.004761 367.450989,337.004761 381.145721,337.004761 
	C381.145721,329.865723 381.145721,323.096191 381.145721,315.703308 
	C370.382080,315.703308 359.832153,315.703308 349.457336,315.703308 
	C349.457336,306.980408 349.457336,298.884216 349.457336,290.304474 
	C364.724640,290.304474 379.664459,290.304474 394.761841,290.304474 
	C394.761841,283.273407 394.761841,276.745361 394.761841,269.742645 
	C379.427307,269.742645 364.515045,269.742645 349.399078,269.742645 
	C349.399078,261.027100 349.399078,252.797318 349.399078,244.117538 
	C360.086426,244.117538 370.511139,244.117538 381.060394,244.117538 
	C381.060394,237.091309 381.060394,230.520035 381.060394,223.547073 
	C364.787842,223.547073 348.827148,223.708344 332.873474,223.444611 
	C328.337433,223.369644 327.313324,224.904968 327.334747,229.177963 
	C327.495056,261.155823 327.421936,293.134857 327.421936,325.113525 
	C327.421906,337.004761 327.421936,337.004761 340.520050,337.004761 
M148.475525,290.278473 
	C150.972931,290.274719 153.490204,290.452179 155.958405,290.181885 
	C157.008087,290.066925 158.793716,289.045166 158.817978,288.383270 
	C159.040268,282.316345 158.948776,276.237885 158.948776,269.746704 
	C143.206635,269.746704 128.286926,269.746704 113.213394,269.746704 
	C113.213394,261.053864 113.213394,252.811798 113.213394,244.079956 
	C123.839630,244.079956 134.237427,244.079956 144.743225,244.079956 
	C144.743225,237.032257 144.743225,230.480270 144.743225,223.654755 
	C127.780136,223.654755 111.144951,223.583221 94.513916,223.812134 
	C93.378189,223.827789 91.301781,226.090958 91.295700,227.316986 
	C91.120750,262.614288 91.183960,297.912628 91.106094,333.210602 
	C91.098930,336.459381 92.565338,337.067230 95.378059,337.042694 
	C106.699242,336.943909 118.021797,337.002045 129.343842,337.002197 
	C134.456177,337.002258 139.568512,337.002228 144.794342,337.002228 
	C144.794342,329.760376 144.794342,323.035645 144.794342,315.828796 
	C134.125961,315.828796 123.727119,315.828796 113.292465,315.828796 
	C113.292465,307.117798 113.292465,298.895142 113.292465,290.278687 
	C124.899460,290.278687 136.190170,290.278687 148.475525,290.278473 
M257.980713,274.415649 
	C263.123352,282.453033 270.701141,286.945923 279.783112,289.008759 
	C283.979706,289.961914 288.395142,289.999268 292.550995,291.072754 
	C299.059113,292.753845 303.301819,298.649628 302.928375,304.653931 
	C302.567902,310.449402 298.354919,314.738770 291.633881,316.201721 
	C290.710602,316.402679 289.822693,316.766113 289.011475,317.024658 
	C289.011475,323.740997 289.011475,330.169952 289.011475,336.968292 
	C301.307587,336.675690 311.509918,332.564209 318.384857,322.493164 
	C325.644196,311.858856 325.983459,300.174377 320.503021,288.771973 
	C314.083954,275.416565 302.065277,270.875519 288.119843,270.085602 
	C279.391052,269.591156 274.463348,264.574677 274.834564,256.613373 
	C275.196075,248.859909 280.940674,243.789307 289.252502,244.027023 
	C297.470184,244.262009 302.153320,248.597977 303.077789,256.591492 
	C310.059540,256.591492 316.610596,256.591492 323.118530,256.591492 
	C323.855286,243.407028 316.215576,231.712616 303.749084,226.482315 
	C289.641663,220.563583 272.496735,223.910324 262.700867,234.495010 
	C252.547104,245.466415 250.624680,260.367493 257.980713,274.415649 
M435.898773,293.451141 
	C438.097931,287.157593 440.297089,280.864044 442.940826,273.298157 
	C444.066162,276.283936 444.663208,277.790802 445.205017,279.317352 
	C451.540863,297.168884 457.821411,315.040375 464.278748,332.847809 
	C464.855591,334.438568 466.495667,336.723511 467.760620,336.803284 
	C474.170044,337.207397 480.618713,336.989319 488.198273,336.989319 
	C473.239349,298.520752 458.639648,260.975952 444.039948,223.431152 
	C443.340118,223.458145 442.640289,223.485123 441.940460,223.512115 
	C427.387177,261.082245 412.833893,298.652405 397.977600,337.004852 
	C405.066132,337.004852 410.883453,336.819794 416.680817,337.079987 
	C419.753418,337.217926 421.070160,336.028870 422.012939,333.260620 
	C426.458771,320.206177 431.080658,307.211731 435.898773,293.451141 
z"/>
<path fill="#FF3434" opacity="1.000000" stroke="none" 
	d="
M162.418976,330.750732 
	C162.419022,317.467590 162.419022,304.657867 162.419022,291.480530 
	C169.671082,291.480530 176.551712,291.480530 184.029709,291.480530 
	C184.029709,299.497589 184.029709,307.553192 184.029709,316.080383 
	C199.022614,316.314606 213.305893,315.269135 221.548416,301.494659 
	C229.821274,287.669495 229.854584,272.582428 221.223923,258.809906 
	C212.870285,245.479431 198.905151,244.165741 184.165695,244.178085 
	C184.165695,252.790314 184.165695,260.874420 184.165695,269.163574 
	C176.861130,269.163574 170.069977,269.163574 162.969574,269.163574 
	C162.786346,268.237610 162.448410,267.318298 162.445862,266.398071 
	C162.410263,253.564896 162.432419,240.731567 162.408569,227.898331 
	C162.404282,225.587646 162.421844,223.364548 165.653656,223.567032 
	C180.245895,224.481277 195.127930,223.916016 209.363556,226.677658 
	C233.919373,231.441360 247.622025,249.008804 248.746887,274.579498 
	C249.065735,281.827881 248.534286,289.292511 247.116684,296.403534 
	C243.479523,314.648407 232.046539,326.312653 214.609467,332.288422 
	C201.600723,336.746582 177.582428,338.717163 162.742508,336.466339 
	C162.638977,334.789093 162.528946,333.006622 162.418976,330.750732 
z"/>
<path fill="#FF3333" opacity="1.000000" stroke="none" 
	d="
M72.857193,304.117615 
	C77.826012,314.980194 82.653030,325.492798 87.920288,336.964233 
	C79.915726,336.964233 72.991165,337.147217 66.094955,336.787231 
	C64.921112,336.725983 63.524494,334.499847 62.814816,332.997894 
	C57.202511,321.119873 51.497849,309.274994 46.336693,297.199738 
	C44.366695,292.590637 42.050621,290.094666 36.844601,291.085083 
	C35.261524,291.386261 33.572731,291.131775 31.214495,291.131775 
	C31.214495,293.266754 31.214575,295.032501 31.214483,296.798218 
	C31.213873,308.796539 31.118870,320.796112 31.274578,332.792419 
	C31.316986,336.059631 30.297178,337.232971 26.993885,337.062836 
	C22.340166,336.823212 17.654135,337.170959 13.006876,336.875275 
	C11.900644,336.804932 9.981840,335.186920 9.974302,334.268127 
	C9.800920,313.133636 9.840547,291.997375 9.840547,270.249878 
	C14.847216,270.249878 19.461843,270.270874 24.076214,270.245483 
	C33.406509,270.194092 42.749722,270.397797 52.062801,269.963898 
	C59.702358,269.608032 64.106728,265.057648 64.513458,258.200531 
	C64.923386,251.289444 61.134624,246.356323 53.640171,244.978836 
	C49.424950,244.204071 45.041893,244.171738 40.730862,244.123230 
	C30.607338,244.009293 20.481661,244.086746 10.095890,244.086746 
	C10.095890,237.226730 10.095890,230.807541 10.095890,224.179932 
	C10.953149,223.967361 11.726462,223.605011 12.497539,223.609711 
	C26.491663,223.695038 40.516689,223.274124 54.472649,224.064468 
	C79.900047,225.504501 93.659737,249.190979 83.013069,272.373932 
	C79.551857,279.910675 73.380501,284.475586 65.406151,287.906921 
	C67.896172,293.310181 70.305786,298.538940 72.857193,304.117615 
z"/>
<path fill="#FF3333" opacity="1.000000" stroke="none" 
	d="
M340.025391,337.004761 
	C327.421936,337.004761 327.421906,337.004761 327.421936,325.113525 
	C327.421936,293.134857 327.495056,261.155823 327.334747,229.177963 
	C327.313324,224.904968 328.337433,223.369644 332.873474,223.444611 
	C348.827148,223.708344 364.787842,223.547073 381.060394,223.547073 
	C381.060394,230.520035 381.060394,237.091309 381.060394,244.117538 
	C370.511139,244.117538 360.086426,244.117538 349.399078,244.117538 
	C349.399078,252.797318 349.399078,261.027100 349.399078,269.742645 
	C364.515045,269.742645 379.427307,269.742645 394.761841,269.742645 
	C394.761841,276.745361 394.761841,283.273407 394.761841,290.304474 
	C379.664459,290.304474 364.724640,290.304474 349.457336,290.304474 
	C349.457336,298.884216 349.457336,306.980408 349.457336,315.703308 
	C359.832153,315.703308 370.382080,315.703308 381.145721,315.703308 
	C381.145721,323.096191 381.145721,329.865723 381.145721,337.004761 
	C367.450989,337.004761 353.985535,337.004761 340.025391,337.004761 
z"/>
<path fill="#FF3232" opacity="1.000000" stroke="none" 
	d="
M147.978210,290.278564 
	C136.190170,290.278687 124.899460,290.278687 113.292465,290.278687 
	C113.292465,298.895142 113.292465,307.117798 113.292465,315.828796 
	C123.727119,315.828796 134.125961,315.828796 144.794342,315.828796 
	C144.794342,323.035645 144.794342,329.760376 144.794342,337.002228 
	C139.568512,337.002228 134.456177,337.002258 129.343842,337.002197 
	C118.021797,337.002045 106.699242,336.943909 95.378059,337.042694 
	C92.565338,337.067230 91.098930,336.459381 91.106094,333.210602 
	C91.183960,297.912628 91.120750,262.614288 91.295700,227.316986 
	C91.301781,226.090958 93.378189,223.827789 94.513916,223.812134 
	C111.144951,223.583221 127.780136,223.654755 144.743225,223.654755 
	C144.743225,230.480270 144.743225,237.032257 144.743225,244.079956 
	C134.237427,244.079956 123.839630,244.079956 113.213394,244.079956 
	C113.213394,252.811798 113.213394,261.053864 113.213394,269.746704 
	C128.286926,269.746704 143.206635,269.746704 158.948776,269.746704 
	C158.948776,276.237885 159.040268,282.316345 158.817978,288.383270 
	C158.793716,289.045166 157.008087,290.066925 155.958405,290.181885 
	C153.490204,290.452179 150.972931,290.274719 147.978210,290.278564 
z"/>
<path fill="#FF3333" opacity="1.000000" stroke="none" 
	d="
M257.807373,274.092407 
	C250.624680,260.367493 252.547104,245.466415 262.700867,234.495010 
	C272.496735,223.910324 289.641663,220.563583 303.749084,226.482315 
	C316.215576,231.712616 323.855286,243.407028 323.118530,256.591492 
	C316.610596,256.591492 310.059540,256.591492 303.077789,256.591492 
	C302.153320,248.597977 297.470184,244.262009 289.252502,244.027023 
	C280.940674,243.789307 275.196075,248.859909 274.834564,256.613373 
	C274.463348,264.574677 279.391052,269.591156 288.119843,270.085602 
	C302.065277,270.875519 314.083954,275.416565 320.503021,288.771973 
	C325.983459,300.174377 325.644196,311.858856 318.384857,322.493164 
	C311.509918,332.564209 301.307587,336.675690 289.011475,336.968292 
	C289.011475,330.169952 289.011475,323.740997 289.011475,317.024658 
	C289.822693,316.766113 290.710602,316.402679 291.633881,316.201721 
	C298.354919,314.738770 302.567902,310.449402 302.928375,304.653931 
	C303.301819,298.649628 299.059113,292.753845 292.550995,291.072754 
	C288.395142,289.999268 283.979706,289.961914 279.783112,289.008759 
	C270.701141,286.945923 263.123352,282.453033 257.807373,274.092407 
z"/>
<path fill="#FF3434" opacity="1.000000" stroke="none" 
	d="
M435.769287,293.823486 
	C431.080658,307.211731 426.458771,320.206177 422.012939,333.260620 
	C421.070160,336.028870 419.753418,337.217926 416.680817,337.079987 
	C410.883453,336.819794 405.066132,337.004852 397.977600,337.004852 
	C412.833893,298.652405 427.387177,261.082245 441.940460,223.512115 
	C442.640289,223.485123 443.340118,223.458145 444.039948,223.431152 
	C458.639648,260.975952 473.239349,298.520752 488.198273,336.989319 
	C480.618713,336.989319 474.170044,337.207397 467.760620,336.803284 
	C466.495667,336.723511 464.855591,334.438568 464.278748,332.847809 
	C457.821411,315.040375 451.540863,297.168884 445.205017,279.317352 
	C444.663208,277.790802 444.066162,276.283936 442.940826,273.298157 
	C440.297089,280.864044 438.097931,287.157593 435.769287,293.823486 
z"/>
</svg>